# xmcd
#
# Track frame offsets:
#	150
#	15983
#	36945
#	55029
#	76041
#	90142
#	110231
#	124713
#	148249
#	162857
#	177004
#	198530
#
# Disc length: 3041 seconds
#
# Revision: 0
# Processed by: cddbd v1.5.2PL0 Copyright (c) Steve Scherf et al.
# Submitted via: EasyCDDAExtractor 2010.6.0.0
#
DISCID=900bdf0c
DTITLE=Sir Charles Jones - Love Machine
DYEAR=2001
DGENRE=Blues
TTITLE0=Love Machine
TTITLE1=Is There Anybody Lonely
TTITLE2=Friday
TTITLE3=Just Can't Let Go
TTITLE4=Let Me See You Move It
TTITLE5=Tell Me How You Want It
TTITLE6=Let's Get It On
TTITLE7=For Better Or Worse
TTITLE8=Stop Fooling Around
TTITLE9=Just Like Fire
TTITLE10=Friday- Club Mix
TTITLE11=Friday- The Remix
EXTD=
EXTT0=
EXTT1=
EXTT2=
EXTT3=
EXTT4=
EXTT5=
EXTT6=
EXTT7=
EXTT8=
EXTT9=
EXTT10=
EXTT11=
PLAYORDER=
